<svg width="24.000000" height="24.000000" viewBox="0 0 24 24" fill="none" xmlns="http://www.w3.org/2000/svg" xmlns:xlink="http://www.w3.org/1999/xlink">
	<desc>
			Created with Pixso.
	</desc>
	<defs>
		<clipPath id="clip4553_36008">
			<rect id="Icons/moon05" width="24.000000" height="24.000000" fill="white" fill-opacity="0"/>
		</clipPath>
	</defs>
	<rect id="Icons/moon05" width="24.000000" height="24.000000" fill="#FFFFFF" fill-opacity="0"/>
	<g clip-path="url(#clip4553_36008)">
		<path id="Vector" d="M10.136 7.5C10.136 9.18781 10.8065 10.8065 12 12C13.1935 13.1935 14.8121 13.864 16.5 13.864C18.1879 13.864 19.8065 13.1935 21 12C21 13.78 20.4722 15.5201 19.4833 17.0001C18.4943 18.4802 17.0887 19.6337 15.4442 20.3149C13.7996 20.9961 11.99 21.1743 10.2441 20.8271C8.49841 20.4798 6.89478 19.6226 5.63599 18.364C4.37732 17.1053 3.52026 15.5016 3.17297 13.7558C2.82568 12.01 3.00391 10.2004 3.68506 8.55585C4.36633 6.91132 5.51978 5.50568 6.99988 4.51678C8.47986 3.52783 10.22 3 12 3C10.8065 4.19348 10.136 5.81219 10.136 7.5Z" stroke="#001731" stroke-opacity="1.000000" stroke-width="2.000000" stroke-linejoin="round"/>
	</g>
</svg>
