<svg width="24.000000" height="24.000000" viewBox="0 0 24 24" fill="none" xmlns="http://www.w3.org/2000/svg" xmlns:xlink="http://www.w3.org/1999/xlink">
	<desc>
			Created with Pixso.
	</desc>
	<defs>
		<clipPath id="clip4553_36033">
			<rect id="Icons/eye-off33" width="24.000000" height="24.000000" fill="white" fill-opacity="0"/>
		</clipPath>
	</defs>
	<rect id="Icons/eye-off33" width="24.000000" height="24.000000" fill="#FFFFFF" fill-opacity="0"/>
	<g clip-path="url(#clip4553_36033)">
		<path id="Vector" d="M9.88 9.88C9.58521 10.1547 9.34888 10.4858 9.18494 10.8539C9.02087 11.2219 8.93274 11.6191 8.92566 12.0219C8.91858 12.4247 8.99268 12.8248 9.14355 13.1984C9.29443 13.572 9.51892 13.9113 9.80383 14.1962C10.0887 14.481 10.4281 14.7056 10.8016 14.8565C11.1752 15.0074 11.5753 15.0815 11.9781 15.0743C12.3809 15.0673 12.7782 14.9791 13.1461 14.8151C13.5142 14.6512 13.8453 14.4147 14.12 14.12" stroke="#001731" stroke-opacity="1.000000" stroke-width="2.000000" stroke-linejoin="round" stroke-linecap="round"/>
		<path id="Vector" d="M10.73 5.08002C11.1512 5.02753 11.5754 5.00079 12 5C19 5 22 12 22 12C21.5529 12.9572 20.9922 13.8569 20.33 14.68" stroke="#001731" stroke-opacity="1.000000" stroke-width="2.000000" stroke-linejoin="round" stroke-linecap="round"/>
		<path id="Vector" d="M6.60999 6.60999C4.62122 7.9646 3.02991 9.82526 2 12C2 12 5 19 12 19C13.9159 19.0051 15.7908 18.4451 17.39 17.39" stroke="#001731" stroke-opacity="1.000000" stroke-width="2.000000" stroke-linejoin="round" stroke-linecap="round"/>
		<path id="Vector" d="M2 2L22 22" stroke="#001731" stroke-opacity="1.000000" stroke-width="2.000000" stroke-linejoin="round" stroke-linecap="round"/>
	</g>
</svg>
