<svg width="24.000000" height="24.000000" viewBox="0 0 24 24" fill="none" xmlns="http://www.w3.org/2000/svg" xmlns:xlink="http://www.w3.org/1999/xlink">
	<desc>
			Created with Pixso.
	</desc>
	<defs>
		<clipPath id="clip4553_36026">
			<rect id="Icons/heart28" width="24.000000" height="24.000000" fill="white" fill-opacity="0"/>
		</clipPath>
	</defs>
	<rect id="Icons/heart28" width="24.000000" height="24.000000" fill="#FFFFFF" fill-opacity="0"/>
	<g clip-path="url(#clip4553_36026)">
		<path id="Vector" d="M22 8.5C22 7.04132 21.4205 5.64233 20.389 4.6109C19.3577 3.57947 17.9587 3 16.5 3C14.74 3 13.5 3.5 12 5C10.5 3.5 9.26001 3 7.5 3C6.04126 3 4.64233 3.57947 3.61096 4.6109C2.57947 5.64233 2 7.04132 2 8.5C2 10.8 3.5 12.55 5 14L12 21L19 14C20.49 12.54 22 10.79 22 8.5Z" stroke="#001731" stroke-opacity="1.000000" stroke-width="2.000000" stroke-linejoin="round"/>
	</g>
</svg>
