<svg width="24.000000" height="24.000000" viewBox="0 0 24 24" fill="none" xmlns="http://www.w3.org/2000/svg" xmlns:xlink="http://www.w3.org/1999/xlink">
	<desc>
			Created with Pixso.
	</desc>
	<defs>
		<clipPath id="clip4553_36040">
			<rect id="Icons/folder-input40" width="24.000000" height="24.000000" fill="white" fill-opacity="0"/>
		</clipPath>
	</defs>
	<rect id="Icons/folder-input40" width="24.000000" height="24.000000" fill="#FFFFFF" fill-opacity="0"/>
	<g clip-path="url(#clip4553_36040)">
		<path id="Vector" d="M2 9L2 5C2 4.46954 2.21069 3.96082 2.58582 3.58575C2.96082 3.21069 3.4696 3 4 3L7.90002 3C8.2345 2.9967 8.56445 3.07739 8.85974 3.23462C9.15491 3.39185 9.40601 3.62061 9.58997 3.89996L10.4 5.09998C10.5822 5.37653 10.8301 5.60352 11.1215 5.76056C11.413 5.91766 11.7389 5.99994 12.0699 6L20 6C20.5304 6 21.0392 6.21069 21.4142 6.58575C21.7893 6.96082 22 7.46954 22 8L22 18C22 18.5304 21.7893 19.0391 21.4142 19.4142C21.0392 19.7892 20.5304 20 20 20L4 20C3.4696 20 2.96082 19.7892 2.58582 19.4142C2.21069 19.0391 2 18.5304 2 18L2 17" stroke="#000000" stroke-opacity="1.000000" stroke-width="2.000000" stroke-linejoin="round" stroke-linecap="round"/>
		<path id="Vector" d="M2 13L12 13" stroke="#000000" stroke-opacity="1.000000" stroke-width="2.000000" stroke-linejoin="round" stroke-linecap="round"/>
		<path id="Vector" d="M9 16L12 13L9 10" stroke="#000000" stroke-opacity="1.000000" stroke-width="2.000000" stroke-linejoin="round" stroke-linecap="round"/>
	</g>
</svg>
