<svg width="24.000000" height="24.000000" viewBox="0 0 24 24" fill="none" xmlns="http://www.w3.org/2000/svg" xmlns:xlink="http://www.w3.org/1999/xlink">
	<desc>
			Created with Pixso.
	</desc>
	<defs>
		<clipPath id="clip4553_36035">
			<rect id="Icons/lock-keyhole35" width="24.000000" height="24.000000" fill="white" fill-opacity="0"/>
		</clipPath>
	</defs>
	<rect id="Icons/lock-keyhole35" width="24.000000" height="24.000000" fill="#FFFFFF" fill-opacity="0"/>
	<g clip-path="url(#clip4553_36035)">
		<path id="Vector" d="M12 17C11.4478 17 11 16.5523 11 16C11 15.4477 11.4478 15 12 15C12.5522 15 13 15.4477 13 16C13 16.5523 12.5522 17 12 17Z" stroke="#001731" stroke-opacity="1.000000" stroke-width="2.000000" stroke-linejoin="round"/>
		<path id="Vector" d="M19 10C20.1046 10 21 10.8954 21 12L21 20C21 21.1046 20.1046 22 19 22L5 22C3.89539 22 3 21.1046 3 20L3 12C3 10.8954 3.89539 10 5 10L19 10Z" stroke="#001731" stroke-opacity="1.000000" stroke-width="2.000000" stroke-linejoin="round"/>
		<path id="Vector" d="M7 10L7 7C7 5.67389 7.52673 4.40216 8.46448 3.46448C9.4021 2.52679 10.674 2 12 2C13.326 2 14.5979 2.52679 15.5355 3.46448C16.4733 4.40216 17 5.67389 17 7L17 10" stroke="#001731" stroke-opacity="1.000000" stroke-width="2.000000" stroke-linejoin="round" stroke-linecap="round"/>
	</g>
</svg>
