<svg width="24.000000" height="24.000000" viewBox="0 0 24 24" fill="none" xmlns="http://www.w3.org/2000/svg" xmlns:xlink="http://www.w3.org/1999/xlink">
	<desc>
			Created with Pixso.
	</desc>
	<defs>
		<clipPath id="clip4553_36005">
			<rect id="Icons/bell08" width="24.000000" height="24.000000" fill="white" fill-opacity="0"/>
		</clipPath>
	</defs>
	<rect id="Icons/bell08" width="24.000000" height="24.000000" fill="#FFFFFF" fill-opacity="0"/>
	<g clip-path="url(#clip4553_36005)">
		<path id="Vector" d="M7.75732 3.75739C8.88257 2.63214 10.4087 2 12 2C13.5913 2 15.1174 2.63214 16.2427 3.75739C17.3679 4.88257 18 6.40869 18 8C18 15 21 17 21 17L3 17C3 17 6 15 6 8C6 6.40869 6.63208 4.88257 7.75732 3.75739Z" stroke="#001731" stroke-opacity="1.000000" stroke-width="2.000000" stroke-linejoin="round"/>
		<path id="Vector" d="M10.3 21C10.4674 21.3044 10.7135 21.5583 11.0126 21.7352C11.3115 21.912 11.6526 22.0053 12 22.0053C12.3474 22.0053 12.6885 21.912 12.9875 21.7352C13.2866 21.5583 13.5327 21.3044 13.7001 21" stroke="#001731" stroke-opacity="1.000000" stroke-width="2.000000" stroke-linejoin="round" stroke-linecap="round"/>
	</g>
</svg>
