<svg width="24.000000" height="24.000000" viewBox="0 0 24 24" fill="none" xmlns="http://www.w3.org/2000/svg" xmlns:xlink="http://www.w3.org/1999/xlink">
	<desc>
			Created with Pixso.
	</desc>
	<defs>
		<clipPath id="clip4553_36044">
			<rect id="Icons/grip-vertical44" width="24.000000" height="24.000000" fill="white" fill-opacity="0"/>
		</clipPath>
	</defs>
	<rect id="Icons/grip-vertical44" width="24.000000" height="24.000000" fill="#FFFFFF" fill-opacity="0"/>
	<g clip-path="url(#clip4553_36044)">
		<path id="Vector" d="M9 13C8.44775 13 8 12.5523 8 12C8 11.4477 8.44775 11 9 11C9.55225 11 10 11.4477 10 12C10 12.5523 9.55225 13 9 13Z" stroke="#000000" stroke-opacity="1.000000" stroke-width="2.000000" stroke-linejoin="round"/>
		<path id="Vector" d="M9 6C8.44775 6 8 5.55231 8 5C8 4.44769 8.44775 4 9 4C9.55225 4 10 4.44769 10 5C10 5.55231 9.55225 6 9 6Z" stroke="#000000" stroke-opacity="1.000000" stroke-width="2.000000" stroke-linejoin="round"/>
		<path id="Vector" d="M9 20C8.44775 20 8 19.5523 8 19C8 18.4477 8.44775 18 9 18C9.55225 18 10 18.4477 10 19C10 19.5523 9.55225 20 9 20Z" stroke="#000000" stroke-opacity="1.000000" stroke-width="2.000000" stroke-linejoin="round"/>
		<path id="Vector" d="M15 13C14.4478 13 14 12.5523 14 12C14 11.4477 14.4478 11 15 11C15.5522 11 16 11.4477 16 12C16 12.5523 15.5522 13 15 13Z" stroke="#000000" stroke-opacity="1.000000" stroke-width="2.000000" stroke-linejoin="round"/>
		<path id="Vector" d="M15 6C14.4478 6 14 5.55231 14 5C14 4.44769 14.4478 4 15 4C15.5522 4 16 4.44769 16 5C16 5.55231 15.5522 6 15 6Z" stroke="#000000" stroke-opacity="1.000000" stroke-width="2.000000" stroke-linejoin="round"/>
		<path id="Vector" d="M15 20C14.4478 20 14 19.5523 14 19C14 18.4477 14.4478 18 15 18C15.5522 18 16 18.4477 16 19C16 19.5523 15.5522 20 15 20Z" stroke="#000000" stroke-opacity="1.000000" stroke-width="2.000000" stroke-linejoin="round"/>
	</g>
</svg>
