<svg width="24.000000" height="24.000000" viewBox="0 0 24 24" fill="none" xmlns="http://www.w3.org/2000/svg" xmlns:xlink="http://www.w3.org/1999/xlink">
	<desc>
			Created with Pixso.
	</desc>
	<defs>
		<clipPath id="clip4553_36024">
			<rect id="Icons/book-user25" width="24.000000" height="24.000000" fill="white" fill-opacity="0"/>
		</clipPath>
	</defs>
	<rect id="Icons/book-user25" width="24.000000" height="24.000000" fill="#FFFFFF" fill-opacity="0"/>
	<g clip-path="url(#clip4553_36024)">
		<path id="Vector" d="M4 4.5C4 3.83698 4.26343 3.20105 4.73218 2.73224C5.20105 2.26337 5.83691 2 6.5 2L20 2L20 22L6.5 22C5.83691 22 5.20105 21.7366 4.73218 21.2678C4.26343 20.799 4 20.163 4 19.5L4 4.5ZM4 19.5C4 18.837 4.26343 18.201 4.73218 17.7322C5.20105 17.2634 5.83691 17 6.5 17L20 17" stroke="#001731" stroke-opacity="1.000000" stroke-width="2.000000" stroke-linejoin="round"/>
		<path id="Vector" d="M12 10C10.8954 10 10 9.10455 10 8C10 6.89545 10.8954 6 12 6C13.1046 6 14 6.89545 14 8C14 9.10455 13.1046 10 12 10Z" stroke="#001731" stroke-opacity="1.000000" stroke-width="2.000000" stroke-linejoin="round"/>
		<path id="Vector" d="M15 13C15 12.2043 14.684 11.4413 14.1213 10.8787C13.5587 10.316 12.7957 10 12 10C11.2043 10 10.4413 10.316 9.87866 10.8787C9.31604 11.4413 9 12.2043 9 13" stroke="#001731" stroke-opacity="1.000000" stroke-width="2.000000" stroke-linejoin="round" stroke-linecap="round"/>
	</g>
</svg>
