<svg width="24.000000" height="24.000000" viewBox="0 0 24 24" fill="none" xmlns="http://www.w3.org/2000/svg" xmlns:xlink="http://www.w3.org/1999/xlink">
	<desc>
			Created with Pixso.
	</desc>
	<defs>
		<clipPath id="clip4553_36002">
			<rect id="Icons/wallet11" width="24.000000" height="24.000000" fill="white" fill-opacity="0"/>
		</clipPath>
	</defs>
	<rect id="Icons/wallet11" width="24.000000" height="24.000000" fill="#FFFFFF" fill-opacity="0"/>
	<g clip-path="url(#clip4553_36002)">
		<path id="Vector" d="M21 12L21 7L5 7C4.4696 7 3.96082 6.78931 3.58582 6.41418C3.21069 6.03912 3 5.53046 3 5C3 4.46954 3.21069 3.96088 3.58582 3.58582C3.96082 3.21069 4.4696 3 5 3L19 3L19 7" stroke="#001731" stroke-opacity="1.000000" stroke-width="2.000000" stroke-linejoin="round" stroke-linecap="round"/>
		<path id="Vector" d="M3 5L3 19C3 19.5305 3.21069 20.0391 3.58582 20.4142C3.96082 20.7893 4.4696 21 5 21L21 21L21 16" stroke="#001731" stroke-opacity="1.000000" stroke-width="2.000000" stroke-linejoin="round" stroke-linecap="round"/>
		<path id="Vector" d="M16.5858 12.5858C16.2107 12.9609 16 13.4695 16 14C16 14.5305 16.2107 15.0391 16.5858 15.4142C16.9608 15.7893 17.4696 16 18 16L22 16L22 12L18 12C17.4696 12 16.9608 12.2107 16.5858 12.5858Z" stroke="#001731" stroke-opacity="1.000000" stroke-width="2.000000" stroke-linejoin="round"/>
	</g>
</svg>
