<svg width="24.000000" height="24.000000" viewBox="0 0 24 24" fill="none" xmlns="http://www.w3.org/2000/svg" xmlns:xlink="http://www.w3.org/1999/xlink">
	<desc>
			Created with Pixso.
	</desc>
	<defs>
		<clipPath id="clip4553_36028">
			<rect id="Icons/more-vertical30" width="24.000000" height="24.000000" fill="white" fill-opacity="0"/>
		</clipPath>
	</defs>
	<rect id="Icons/more-vertical30" width="24.000000" height="24.000000" fill="#FFFFFF" fill-opacity="0"/>
	<g clip-path="url(#clip4553_36028)">
		<path id="Vector" d="M12 13C11.4478 13 11 12.5523 11 12C11 11.4477 11.4478 11 12 11C12.5522 11 13 11.4477 13 12C13 12.5523 12.5522 13 12 13Z" stroke="#001731" stroke-opacity="1.000000" stroke-width="2.000000" stroke-linejoin="round"/>
		<path id="Vector" d="M12 6C11.4478 6 11 5.55231 11 5C11 4.44769 11.4478 4 12 4C12.5522 4 13 4.44769 13 5C13 5.55231 12.5522 6 12 6Z" stroke="#001731" stroke-opacity="1.000000" stroke-width="2.000000" stroke-linejoin="round"/>
		<path id="Vector" d="M12 20C11.4478 20 11 19.5523 11 19C11 18.4477 11.4478 18 12 18C12.5522 18 13 18.4477 13 19C13 19.5523 12.5522 20 12 20Z" stroke="#001731" stroke-opacity="1.000000" stroke-width="2.000000" stroke-linejoin="round"/>
	</g>
</svg>
