<svg width="24.000000" height="24.000000" viewBox="0 0 24 24" fill="none" xmlns="http://www.w3.org/2000/svg" xmlns:xlink="http://www.w3.org/1999/xlink">
	<desc>
			Created with Pixso.
	</desc>
	<defs>
		<clipPath id="clip4553_36045">
			<rect id="Icons/phone45" width="24.000000" height="24.000000" fill="white" fill-opacity="0"/>
		</clipPath>
	</defs>
	<rect id="Icons/phone45" width="24.000000" height="24.000000" fill="#FFFFFF" fill-opacity="0"/>
	<g clip-path="url(#clip4553_36045)">
		<path id="Vector" d="M22 19.92C22.0012 20.1985 21.9441 20.4741 21.8325 20.7293C21.7209 20.9845 21.5574 21.2136 21.3522 21.4019C21.147 21.5901 20.9047 21.7335 20.6407 21.8227C20.377 21.9119 20.0974 21.9451 19.8201 21.92C16.7429 21.5856 13.7871 20.5341 11.1901 18.85C8.77393 17.3146 6.72534 15.2662 5.19006 12.85C3.5 10.2411 2.44824 7.271 2.12 4.17999C2.09509 3.90344 2.12793 3.62476 2.21655 3.36157C2.30518 3.09845 2.44763 2.85669 2.63477 2.65161C2.82202 2.44653 3.0498 2.28265 3.30383 2.17047C3.55786 2.05829 3.8324 2.00024 4.11011 2L7.11011 2C7.59534 1.99518 8.0658 2.16705 8.43384 2.48352C8.80176 2.79999 9.04211 3.23944 9.11011 3.71997C9.23669 4.68005 9.47156 5.62268 9.81006 6.52997C9.94458 6.88788 9.97375 7.27692 9.89392 7.65088C9.81421 8.02484 9.62891 8.3681 9.36011 8.63995L8.09009 9.90997C9.51367 12.4135 11.5865 14.4865 14.0901 15.91L15.3601 14.64C15.632 14.3711 15.9752 14.1859 16.3491 14.1061C16.7231 14.0263 17.1122 14.0554 17.4701 14.19C18.3773 14.5285 19.3199 14.7634 20.28 14.89C20.7659 14.9585 21.2095 15.2032 21.5266 15.5775C21.8438 15.9518 22.0122 16.4296 22 16.92L22 19.92Z" stroke="#001731" stroke-opacity="1.000000" stroke-width="2.000000" stroke-linejoin="round"/>
	</g>
</svg>
