<svg width="24.000000" height="24.000000" viewBox="0 0 24 24" fill="none" xmlns="http://www.w3.org/2000/svg" xmlns:xlink="http://www.w3.org/1999/xlink">
	<desc>
			Created with Pixso.
	</desc>
	<defs>
		<clipPath id="clip4553_36011">
			<rect id="Icons/settings02" width="24.000000" height="24.000000" fill="white" fill-opacity="0"/>
		</clipPath>
	</defs>
	<rect id="Icons/settings02" width="24.000000" height="24.000000" fill="#FFFFFF" fill-opacity="0"/>
	<g clip-path="url(#clip4553_36011)">
		<path id="Vector" d="M11.78 2C11.2495 2 10.7408 2.21069 10.3658 2.58582C9.99072 2.96088 9.78003 3.46954 9.78003 4L9.78003 4.17999C9.77966 4.5307 9.68701 4.87518 9.5116 5.17883C9.33606 5.48248 9.08374 5.73462 8.78003 5.90997L8.34998 6.15997C8.04602 6.33551 7.70105 6.42798 7.34998 6.42798C6.9989 6.42798 6.65405 6.33551 6.34998 6.15997L6.19995 6.08002C5.74109 5.81525 5.1958 5.74347 4.68396 5.88031C4.17212 6.01715 3.7356 6.35156 3.46997 6.81L3.25 7.19C2.98523 7.64893 2.91345 8.19415 3.05029 8.70599C3.18713 9.21783 3.52148 9.65442 3.97998 9.91998L4.13 10.02C4.43225 10.1945 4.68359 10.4451 4.85901 10.7468C5.03442 11.0486 5.12793 11.391 5.13 11.74L5.13 12.25C5.13135 12.6024 5.03967 12.949 4.86401 13.2545C4.68848 13.5601 4.43518 13.8138 4.13 13.99L3.97998 14.08C3.52148 14.3456 3.18713 14.7822 3.05029 15.294C2.91345 15.8058 2.98523 16.3511 3.25 16.81L3.46997 17.19C3.7356 17.6484 4.17212 17.9828 4.68396 18.1197C5.1958 18.2565 5.74109 18.1848 6.19995 17.92L6.34998 17.84C6.65405 17.6645 6.9989 17.572 7.34998 17.572C7.70105 17.572 8.04602 17.6645 8.34998 17.84L8.78003 18.09C9.08374 18.2654 9.33606 18.5175 9.5116 18.8212C9.68701 19.1248 9.77966 19.4693 9.78003 19.82L9.78003 20C9.78003 20.5305 9.99072 21.0391 10.3658 21.4142C10.7408 21.7893 11.2495 22 11.78 22L12.22 22C12.7505 22 13.2592 21.7893 13.6342 21.4142C14.0093 21.0391 14.22 20.5305 14.22 20L14.22 19.82C14.2203 19.4693 14.313 19.1248 14.4884 18.8212C14.6639 18.5175 14.9163 18.2654 15.22 18.09L15.65 17.84C15.954 17.6645 16.299 17.572 16.65 17.572C17.0011 17.572 17.3459 17.6645 17.65 17.84L17.8 17.92C18.2589 18.1848 18.8042 18.2565 19.316 18.1197C19.8279 17.9828 20.2644 17.6484 20.53 17.19L20.75 16.8C21.0148 16.3411 21.0865 15.7958 20.9497 15.284C20.8129 14.7722 20.4785 14.3356 20.02 14.07L19.87 13.99C19.5648 13.8138 19.3115 13.5601 19.136 13.2545C18.9603 12.949 18.8687 12.6024 18.87 12.25L18.87 11.75C18.8687 11.3976 18.9603 11.051 19.136 10.7455C19.3115 10.4399 19.5648 10.1862 19.87 10.01L20.02 9.91998C20.4785 9.65442 20.8129 9.21783 20.9497 8.70599C21.0865 8.19415 21.0148 7.64893 20.75 7.19L20.53 6.81C20.2644 6.35156 19.8279 6.01715 19.316 5.88031C18.8042 5.74347 18.2589 5.81525 17.8 6.08002L17.65 6.15997C17.3459 6.33551 17.0011 6.42798 16.65 6.42798C16.299 6.42798 15.954 6.33551 15.65 6.15997L15.22 5.90997C14.9163 5.73462 14.6639 5.48248 14.4884 5.17883C14.313 4.87518 14.2203 4.5307 14.22 4.17999L14.22 4C14.22 3.46954 14.0093 2.96088 13.6342 2.58582C13.2592 2.21069 12.7505 2 12.22 2L11.78 2Z" stroke="#001731" stroke-opacity="1.000000" stroke-width="2.000000" stroke-linejoin="round"/>
		<path id="Vector" d="M12 15C10.3431 15 9 13.6569 9 12C9 10.3431 10.3431 9 12 9C13.6569 9 15 10.3431 15 12C15 13.6569 13.6569 15 12 15Z" stroke="#001731" stroke-opacity="1.000000" stroke-width="2.000000" stroke-linejoin="round"/>
	</g>
</svg>
