<svg width="24.000000" height="24.000000" viewBox="0 0 24 24" fill="none" xmlns="http://www.w3.org/2000/svg" xmlns:xlink="http://www.w3.org/1999/xlink">
	<desc>
			Created with Pixso.
	</desc>
	<defs>
		<clipPath id="clip4553_36000">
			<rect id="Icons/order14" width="24.000000" height="24.000000" fill="white" fill-opacity="0"/>
		</clipPath>
	</defs>
	<rect id="Icons/order14" width="24.000000" height="24.000000" fill="#FFFFFF" fill-opacity="0"/>
	<g clip-path="url(#clip4553_36000)">
		<path id="Vector" d="M5 17L4 17C3.4696 17 2.96082 16.7893 2.58582 16.4142C2.21069 16.0391 2 15.5305 2 15L2 5C2 4.46954 2.21069 3.96088 2.58582 3.58582C2.96082 3.21069 3.4696 3 4 3L20 3C20.5304 3 21.0392 3.21069 21.4142 3.58582C21.7893 3.96088 22 4.46954 22 5L22 15C22 15.5305 21.7893 16.0391 21.4142 16.4142C21.0392 16.7893 20.5304 17 20 17L19 17" stroke="#001731" stroke-opacity="1.000000" stroke-width="2.000000" stroke-linejoin="round" stroke-linecap="round"/>
		<path id="Vector" d="M17 21L7 21L12 15L17 21Z" stroke="#001731" stroke-opacity="1.000000" stroke-width="2.000000" stroke-linejoin="round"/>
	</g>
</svg>
