<svg width="16.000000" height="16.000000" viewBox="0 0 16 16" fill="none" xmlns="http://www.w3.org/2000/svg" xmlns:xlink="http://www.w3.org/1999/xlink">
	<desc>
			Created with Pixso.
	</desc>
	<defs>
		<clipPath id="clip4553_36036">
			<rect id="Icons/pencil36" width="16.000000" height="16.000000" fill="white" fill-opacity="0"/>
		</clipPath>
	</defs>
	<rect id="Icons/pencil36" width="16.000000" height="16.000000" fill="#FFFFFF" fill-opacity="0"/>
	<g clip-path="url(#clip4553_36036)">
		<path id="Vector" d="M11.9501 1.52045C12.1869 1.40485 12.4454 1.33954 12.7091 1.32867C12.9728 1.31775 13.236 1.36157 13.4817 1.45721C13.7273 1.55292 13.9503 1.69836 14.1362 1.88434C14.3223 2.07031 14.4672 2.29266 14.5618 2.53735C14.6564 2.78198 14.6986 3.04352 14.6858 3.3053C14.673 3.56708 14.6053 3.8233 14.4873 4.05768C14.3693 4.29205 14.2032 4.49945 14 4.66663L5 13.6666L1.33337 14.6666L2.33337 11L11.3334 2C11.5032 1.79932 11.7131 1.63599 11.9501 1.52045Z" stroke="#001731" stroke-opacity="1.000000" stroke-width="2.000000" stroke-linejoin="round"/>
		<path id="Vector" d="M10 3.33331L12.6666 6" stroke="#001731" stroke-opacity="1.000000" stroke-width="2.000000" stroke-linejoin="round" stroke-linecap="round"/>
	</g>
</svg>
