<svg width="24.000000" height="24.000000" viewBox="0 0 24 24" fill="none" xmlns="http://www.w3.org/2000/svg" xmlns:xlink="http://www.w3.org/1999/xlink">
	<desc>
			Created with Pixso.
	</desc>
	<defs>
		<clipPath id="clip4553_36039">
			<rect id="Icons/mail39" width="24.000000" height="24.000000" fill="white" fill-opacity="0"/>
		</clipPath>
	</defs>
	<rect id="Icons/mail39" width="24.000000" height="24.000000" fill="#FFFFFF" fill-opacity="0"/>
	<g clip-path="url(#clip4553_36039)">
		<path id="Vector" d="M20 4C21.1046 4 22 4.89545 22 6L22 18C22 19.1046 21.1046 20 20 20L4 20C2.89545 20 2 19.1046 2 18L2 6C2 4.89545 2.89545 4 4 4L20 4Z" stroke="#001731" stroke-opacity="1.000000" stroke-width="1.000000" stroke-linejoin="round"/>
		<path id="Vector" d="M22 7L13.03 12.7C12.7213 12.8934 12.3643 12.996 12 12.996C11.6357 12.996 11.2787 12.8934 10.97 12.7L2 7" stroke="#001731" stroke-opacity="1.000000" stroke-width="1.000000" stroke-linejoin="round" stroke-linecap="round"/>
		<circle id="Ellipse 56" cx="21.000000" cy="4.000000" r="2.000000" fill="#03B62A" fill-opacity="1.000000"/>
		<circle id="Ellipse 56" cx="21.000000" cy="4.000000" r="2.500000" stroke="#FFFFFF" stroke-opacity="1.000000" stroke-width="1.000000"/>
	</g>
</svg>
