<svg width="24.000000" height="24.000000" viewBox="0 0 24 24" fill="none" xmlns="http://www.w3.org/2000/svg" xmlns:xlink="http://www.w3.org/1999/xlink">
	<desc>
			Created with Pixso.
	</desc>
	<defs>
		<clipPath id="clip4553_36023">
			<rect id="Icons/Orders Icon22" width="24.000000" height="24.000000" fill="white" fill-opacity="0"/>
		</clipPath>
	</defs>
	<rect id="Icons/Orders Icon22" width="24.000000" height="24.000000" fill="#FFFFFF" fill-opacity="0"/>
	<g clip-path="url(#clip4553_36023)">
		<path id="Vector" d="M16.5 9.40002L7.5 4.21002" stroke="#001731" stroke-opacity="1.000000" stroke-width="2.000000" stroke-linejoin="round" stroke-linecap="round"/>
		<path id="Vector" d="M21 8C20.9996 7.64929 20.9071 7.30481 20.7316 7.00116C20.556 6.69751 20.3037 6.44537 20 6.27002L13 2.27002C12.6959 2.09448 12.3511 2.00208 12 2.00208C11.6489 2.00208 11.3041 2.09448 11 2.27002L4 6.27002C3.69629 6.44537 3.44397 6.69751 3.26843 7.00116C3.0929 7.30481 3.00037 7.64929 3 8L3 16C3.00037 16.3508 3.0929 16.6952 3.26843 16.9988C3.44397 17.3025 3.69629 17.5547 4 17.73L11 21.73C11.3041 21.9056 11.6489 21.998 12 21.998C12.3511 21.998 12.6959 21.9056 13 21.73L20 17.73C20.3037 17.5547 20.556 17.3025 20.7316 16.9988C20.9071 16.6952 20.9996 16.3508 21 16L21 8Z" stroke="#001731" stroke-opacity="1.000000" stroke-width="2.000000" stroke-linejoin="round"/>
		<path id="Vector" d="M3.27002 6.96002L12 12.01L20.73 6.96002" stroke="#001731" stroke-opacity="1.000000" stroke-width="2.000000" stroke-linejoin="round" stroke-linecap="round"/>
		<path id="Vector" d="M12 22.08L12 12" stroke="#001731" stroke-opacity="1.000000" stroke-width="2.000000" stroke-linejoin="round" stroke-linecap="round"/>
	</g>
</svg>
